<svg xmlns="http://www.w3.org/2000/svg" viewBox="0 0 287.44 59.86"><defs><style>.cls-1{fill:#fff;}.cls-2{fill:#bf2427;}.cls-3{isolation:isolate;}</style></defs><title>New-simbol_White3</title><g id="レイヤー_2" data-name="レイヤー 2"><g id="レイヤー_1-2" data-name="レイヤー 1"><g id="New-simbol"><circle id="BG_White" data-name="BG White" class="cls-1" cx="29.93" cy="29.93" r="29.93"/><path id="パス_394" data-name="パス 394" class="cls-2" d="M29.93,0A29.86,29.86,0,0,0,7,10.69H22.14a1.67,1.67,0,0,1,0,3.34H4.58a30.34,30.34,0,0,0-2.43,4.79H25.91a2.7,2.7,0,0,1,0,5.4H.56A29.92,29.92,0,1,0,35.64.55,29.55,29.55,0,0,0,29.93,0Z"/><g id="Fe.photos" class="cls-3"><g class="cls-3"><path class="cls-1" d="M97.15,30.26H84.26V46H80.42V13.25H97.15v3.81H84.26v9.39H97.15Z"/><path class="cls-1" d="M125.66,34.46H104.27A9.42,9.42,0,0,0,107,40.93a8.14,8.14,0,0,0,5.93,2.44q5.85,0,9-5.77L125,39.21A15.35,15.35,0,0,1,120,45a12.29,12.29,0,0,1-6.85,1.86A11.94,11.94,0,0,1,104.09,43a12.74,12.74,0,0,1-3.58-9.1,12.8,12.8,0,0,1,3.6-9.13A11.79,11.79,0,0,1,113,21,12.08,12.08,0,0,1,122,24.6Q125.52,28.2,125.66,34.46Zm-4.12-3.26a7.86,7.86,0,0,0-3-4.88A9,9,0,0,0,113,24.57q-6.27,0-8.32,6.63Z"/><path class="cls-1" d="M134.39,38.36a2.89,2.89,0,0,1,2.12.87,3.09,3.09,0,0,1,0,4.3,2.86,2.86,0,0,1-2.1.87,3.06,3.06,0,0,1-3-3,2.84,2.84,0,0,1,.89-2.13A2.93,2.93,0,0,1,134.39,38.36Z"/><path class="cls-1" d="M146.83,25.33A11.22,11.22,0,0,1,155.78,21a12.17,12.17,0,0,1,9,3.79,12.53,12.53,0,0,1,3.71,9.1A12.66,12.66,0,0,1,164.86,43,11.84,11.84,0,0,1,156,46.82a12.09,12.09,0,0,1-9.17-4.39V54.65h-3.67v-33h3.67Zm8.95,18a8.66,8.66,0,0,0,6.37-2.75A9.12,9.12,0,0,0,164.86,34a9.22,9.22,0,0,0-2.66-6.64,9.07,9.07,0,0,0-13,0A9.29,9.29,0,0,0,146.6,34a9.12,9.12,0,0,0,2.69,6.69A8.78,8.78,0,0,0,155.78,43.37Z"/><path class="cls-1" d="M195,46h-3.71V34.38a39.37,39.37,0,0,0-.2-4.79,7.26,7.26,0,0,0-.92-2.62,4.83,4.83,0,0,0-1.95-1.88,6.27,6.27,0,0,0-3-.65,7.05,7.05,0,0,0-3.29.81,8,8,0,0,0-2.68,2.23,8.48,8.48,0,0,0-1.55,3.05,31.17,31.17,0,0,0-.42,6.44v9h-3.72V12.45h3.72V25.29a10.93,10.93,0,0,1,8.59-4.3,8.75,8.75,0,0,1,4.79,1.37A8.45,8.45,0,0,1,194,26.12,18.9,18.9,0,0,1,195,33.48Z"/><path class="cls-1" d="M212.52,21a12,12,0,0,1,9,3.81,12.61,12.61,0,0,1,3.7,9.13,12.64,12.64,0,0,1-3.65,9.1,12.65,12.65,0,0,1-18.06,0,12.62,12.62,0,0,1-3.67-9.1,12.64,12.64,0,0,1,3.69-9.13A12.08,12.08,0,0,1,212.52,21Zm0,22.29a8.45,8.45,0,0,0,6.33-2.71A9,9,0,0,0,221.47,34a9.29,9.29,0,0,0-2.66-6.62,8.49,8.49,0,0,0-12.6,0,9.34,9.34,0,0,0-2.64,6.64,9.16,9.16,0,0,0,2.55,6.54A8.46,8.46,0,0,0,212.52,43.28Z"/><path class="cls-1" d="M241.48,24.84h-4.84v17.1q0,.93.27,1.14a2.77,2.77,0,0,0,1.34.2h2.15v3.18a21.45,21.45,0,0,1-3.27.36A4.21,4.21,0,0,1,234,45.76a4.6,4.6,0,0,1-1-3.33V24.84h-4.21V21.62h4.21V12.45h3.71v9.17h4.84Z"/><path class="cls-1" d="M257,21a12,12,0,0,1,9,3.81,12.64,12.64,0,0,1,3.69,9.13A12.64,12.64,0,0,1,266,43,12.65,12.65,0,0,1,248,43a12.62,12.62,0,0,1-3.67-9.1A12.65,12.65,0,0,1,248,24.8,12.06,12.06,0,0,1,257,21Zm0,22.29a8.49,8.49,0,0,0,6.34-2.71A9.06,9.06,0,0,0,266,34a9.25,9.25,0,0,0-2.66-6.62,8.49,8.49,0,0,0-12.6,0,9.34,9.34,0,0,0-2.64,6.64,9.16,9.16,0,0,0,2.55,6.54A8.46,8.46,0,0,0,257,43.28Z"/><path class="cls-1" d="M287.44,24.48,285.06,27c-1.76-1.64-3.37-2.47-4.83-2.47a3.31,3.31,0,0,0-2.33.88A2.84,2.84,0,0,0,277,27.5,2.94,2.94,0,0,0,278,29.74a20,20,0,0,0,3.74,2.38,13.73,13.73,0,0,1,4.14,3.1,6.22,6.22,0,0,1,1.46,4.17,7.13,7.13,0,0,1-2.18,5.28,7.28,7.28,0,0,1-5.34,2.15,9.06,9.06,0,0,1-7.39-3.76l2.33-2.6q2.42,2.82,4.92,2.82a4.1,4.1,0,0,0,2.91-1.12,3.44,3.44,0,0,0,1.21-2.62,3.25,3.25,0,0,0-1.1-2.5A17.41,17.41,0,0,0,279,34.69a12.53,12.53,0,0,1-4-3,6.47,6.47,0,0,1-1.37-4.29,6.1,6.1,0,0,1,1.95-4.55A7.11,7.11,0,0,1,280.66,21C282.79,21,285.05,22.16,287.44,24.48Z"/></g></g></g></g></g></svg>