<svg xmlns="http://www.w3.org/2000/svg" xmlns:xlink="http://www.w3.org/1999/xlink" width="219" height="67" viewBox="0 0 219 67">
  <defs>
    <radialGradient id="radial-gradient" cx="0.127" cy="0.616" r="0.432" gradientTransform="translate(-0.004 -0.009) scale(1.029 1.015)" gradientUnits="objectBoundingBox">
      <stop offset="0" stop-color="#b90d10"/>
      <stop offset="1" stop-color="#c02629"/>
    </radialGradient>
  </defs>
  <g id="Logos_1" transform="translate(0 -896)">
    <path id="交差_1" data-name="交差 1" d="M916-3043v-67h219v17a50,50,0,0,1-50,50Z" transform="translate(-916 4006)" fill="#fff"/>
    <g id="Logos" transform="translate(17.173 911)">
      <g id="Logos-svg">
        <ellipse id="BG" cx="17.662" cy="18.171" rx="17.662" ry="18.171" transform="translate(0.01 0)" fill="#fff"/>
        <path id="パス_362" data-name="パス 362" d="M199.13,85.26A17.432,17.432,0,0,0,185.57,91.8h8.918a1.013,1.013,0,0,1,0,2.025H184.145a18.275,18.275,0,0,0-1.34,2.665h13.748a1.643,1.643,0,0,1,0,3.278H181.821a18.382,18.382,0,0,0,8.144,19.2,17.265,17.265,0,0,0,20.313-1.452,18.5,18.5,0,0,0,5.485-20.174A17.7,17.7,0,0,0,199.13,85.26Z" transform="translate(-181.458 -85.26)" fill="url(#radial-gradient)"/>
        <path id="パス_363" data-name="パス 363" d="M387.872,132.194h-7.606v9.575H378v-19.9h9.877v2.309H380.27V129.9h7.607Z" transform="translate(-331.715 -113)" fill="#231815"/>
        <path id="パス_364" data-name="パス 364" d="M443.174,149.449H430.549a5.807,5.807,0,0,0,1.6,3.925,4.746,4.746,0,0,0,3.5,1.48,5.722,5.722,0,0,0,5.282-3.5l1.849.969a9.236,9.236,0,0,1-2.932,3.491,7.1,7.1,0,0,1-4.041,1.148,6.968,6.968,0,0,1-5.362-2.3,8.291,8.291,0,0,1,.014-11.072,6.874,6.874,0,0,1,5.268-2.309,7.007,7.007,0,0,1,5.256,2.181A8.564,8.564,0,0,1,443.174,149.449Zm-2.44-1.977a4.8,4.8,0,0,0-1.794-2.963,5.21,5.21,0,0,0-3.224-1.059q-3.7,0-4.912,4.022Z" transform="translate(-370.194 -127.707)" fill="#231815"/>
        <path id="パス_365" data-name="パス 365" d="M507.48,184.779a1.686,1.686,0,0,1,1.255.531,1.914,1.914,0,0,1,0,2.609,1.722,1.722,0,0,1-2.5-.015,1.8,1.8,0,0,1-.53-1.3,1.756,1.756,0,0,1,.539-1.284,1.694,1.694,0,0,1,1.232-.538Z" transform="translate(-429.35 -160.667)" fill="#231815"/>
        <path id="パス_366" data-name="パス 366" d="M537.369,143.9a6.563,6.563,0,0,1,5.282-2.636,7.105,7.105,0,0,1,5.334,2.294,7.72,7.72,0,0,1,2.193,5.531,7.823,7.823,0,0,1-2.167,5.543,6.912,6.912,0,0,1-5.228,2.314,7.066,7.066,0,0,1-5.416-2.665V161.7H535.2V141.647h2.167Zm5.282,10.949a5.048,5.048,0,0,0,3.768-1.669,5.936,5.936,0,0,0,.026-8.07,5.074,5.074,0,0,0-3.843-1.672,5.02,5.02,0,0,0-3.815,1.645,5.7,5.7,0,0,0-1.547,4.061,5.631,5.631,0,0,0,1.585,4.063A5.131,5.131,0,0,0,542.651,154.851Z" transform="translate(-451.895 -127.696)" fill="#231815"/>
        <path id="パス_367" data-name="パス 367" d="M624.2,140.238h-2.193v-7.075a24.439,24.439,0,0,0-.118-2.907,4.52,4.52,0,0,0-.542-1.589,2.864,2.864,0,0,0-1.149-1.141,3.618,3.618,0,0,0-1.743-.395,4.1,4.1,0,0,0-1.94.485,4.781,4.781,0,0,0-1.585,1.359,5.146,5.146,0,0,0-.911,1.849,19.109,19.109,0,0,0-.252,3.913v5.5H611.58V119.85h2.192v7.789a6.4,6.4,0,0,1,5.07-2.607,5.082,5.082,0,0,1,4.729,3.111,11.9,11.9,0,0,1,.634,4.47Z" transform="translate(-510.288 -111.469)" fill="#231815"/>
        <path id="パス_368" data-name="パス 368" d="M684.65,141.267a7.015,7.015,0,0,1,5.3,2.309,8.162,8.162,0,0,1,.026,11.072,7.329,7.329,0,0,1-10.656,0,8.14,8.14,0,0,1,.012-11.072,7.042,7.042,0,0,1,5.322-2.309Zm0,13.531a4.934,4.934,0,0,0,3.737-1.645,5.587,5.587,0,0,0,1.554-3.956,5.725,5.725,0,0,0-1.571-4.022,4.918,4.918,0,0,0-7.435,0,5.765,5.765,0,0,0-1.559,4.022,5.637,5.637,0,0,0,1.5,3.971A4.921,4.921,0,0,0,684.65,154.8Z" transform="translate(-560.416 -127.696)" fill="#231815"/>
        <path id="パス_369" data-name="パス 369" d="M757.167,127.368h-2.852v10.379c0,.38.052.613.158.693a1.575,1.575,0,0,0,.794.124h1.267V140.5a12.374,12.374,0,0,1-1.929.218,2.508,2.508,0,0,1-1.884-.64,2.855,2.855,0,0,1-.608-2.023v-10.69H749.64v-1.955h2.482V119.84h2.192v5.573h2.852Z" transform="translate(-615.836 -111.462)" fill="#231815"/>
        <path id="パス_370" data-name="パス 370" d="M796.169,141.267a7.01,7.01,0,0,1,5.294,2.309,8.163,8.163,0,0,1,.028,11.072,7.331,7.331,0,0,1-10.659,0,8.142,8.142,0,0,1,.014-11.072A7.042,7.042,0,0,1,796.169,141.267Zm0,13.531a4.941,4.941,0,0,0,3.737-1.645,5.586,5.586,0,0,0,1.557-3.956,5.727,5.727,0,0,0-1.573-4.022,4.918,4.918,0,0,0-7.435,0,5.772,5.772,0,0,0-1.568,4.022,5.637,5.637,0,0,0,1.5,3.966A4.921,4.921,0,0,0,796.169,154.8Z" transform="translate(-645.673 -127.696)" fill="#231815"/>
        <path id="パス_371" data-name="パス 371" d="M868.058,143.4l-1.4,1.492A4.395,4.395,0,0,0,863.8,143.4a1.909,1.909,0,0,0-1.373.528,1.736,1.736,0,0,0-.553,1.306,1.8,1.8,0,0,0,.619,1.357,11.266,11.266,0,0,0,2.207,1.442,8.187,8.187,0,0,1,2.442,1.887,3.824,3.824,0,0,1,.86,2.527,4.407,4.407,0,0,1-1.281,3.208,4.262,4.262,0,0,1-3.158,1.313,5.285,5.285,0,0,1-4.357-2.282l1.373-1.577a3.935,3.935,0,0,0,2.906,1.713,2.4,2.4,0,0,0,1.717-.678,2.132,2.132,0,0,0,.706-1.592,2.013,2.013,0,0,0-.648-1.522,10.367,10.367,0,0,0-2.218-1.425,7.425,7.425,0,0,1-2.379-1.807,4.07,4.07,0,0,1-.8-2.614,3.743,3.743,0,0,1,1.152-2.752,4.123,4.123,0,0,1,3.038-1.141A5.934,5.934,0,0,1,868.058,143.4Z" transform="translate(-699.602 -127.715)" fill="#231815"/>
      </g>
    </g>
  </g>
</svg>
