<svg xmlns="http://www.w3.org/2000/svg" width="720.32" height="150" viewBox="0 0 720.32 150">
  <g id="アートボード_1_V4" data-name="アートボード 1_V4" transform="translate(-160 -90)">
    <circle id="BG_White" cx="75" cy="75" r="75" transform="translate(160 90)" fill="#fff"/>
    <path id="パス_384" data-name="パス 384" d="M235,90a74.81,74.81,0,0,0-57.44,26.8h37.92a4.18,4.18,0,1,1,0,8.36h-44a75,75,0,0,0-6.09,12h59.54a6.77,6.77,0,0,1,0,13.53H161.39A75,75,0,1,0,235,90Z" fill="#bf2427"/>
    <path id="パス_385" data-name="パス 385" d="M403.46,165.82H371.17V205.3h-9.65V123.21h41.94v9.53H371.17v23.55h32.29Z" fill="#231815"/>
    <path id="パス_386" data-name="パス 386" d="M474.9,176.37H421.3q.56,10.08,6.78,16.2a20.44,20.44,0,0,0,14.86,6.11q14.69,0,22.43-14.46l7.85,4Q468,198,460.77,202.66a30.77,30.77,0,0,1-17.16,4.66q-13.78,0-22.76-9.48a33.49,33.49,0,0,1,0-45.7,29.6,29.6,0,0,1,22.38-9.53,30.19,30.19,0,0,1,22.31,9Q474.58,160.67,474.9,176.37Zm-10.31-8.19A19.78,19.78,0,0,0,457,156a22.5,22.5,0,0,0-13.68-4.37q-15.7,0-20.86,16.6Z" fill="#231815"/>
    <path id="パス_387" data-name="パス 387" d="M496.77,186.12a7.54,7.54,0,1,1-7.51,7.52,7.14,7.14,0,0,1,2.24-5.33,7.3,7.3,0,0,1,5.27-2.19Z" fill="#231815"/>
    <path id="パス_388" data-name="パス 388" d="M528,153.49q9.09-10.87,22.43-10.88A30.6,30.6,0,0,1,573,152.08a31.42,31.42,0,0,1,9.3,22.83,31.79,31.79,0,0,1-9.19,22.88,29.76,29.76,0,0,1-22.21,9.53q-13,0-23-11V227h-9.2V144.18H528Zm22.43,45.19a21.71,21.71,0,0,0,16-6.89,24,24,0,0,0,.11-33.31,22.74,22.74,0,0,0-32.52-.11,23.19,23.19,0,0,0-6.56,16.76,22.85,22.85,0,0,0,6.73,16.77,22.05,22.05,0,0,0,16.19,6.78Z" fill="#231815"/>
    <path id="パス_389" data-name="パス 389" d="M648.74,205.3h-9.31V176.14a95.448,95.448,0,0,0-.51-12,17.931,17.931,0,0,0-2.3-6.56,12,12,0,0,0-4.87-4.71,15.77,15.77,0,0,0-7.41-1.63,17.85,17.85,0,0,0-8.24,2,20.24,20.24,0,0,0-6.73,5.61,21,21,0,0,0-3.87,7.63q-1.07,4-1.06,16.15V205.3h-9.31V121.19h9.31v32.18q9.07-10.76,21.53-10.76A21.92,21.92,0,0,1,638,146a21.1,21.1,0,0,1,8.07,9.42q2.7,6,2.7,18.45Z" fill="#231815"/>
    <path id="パス_390" data-name="パス 390" d="M692.58,142.61a30.18,30.18,0,0,1,22.49,9.53,33,33,0,0,1,.11,45.7,31.74,31.74,0,0,1-45.25,0,32.9,32.9,0,0,1,.06-45.7A30.3,30.3,0,0,1,692.58,142.61Zm0,55.85a21.27,21.27,0,0,0,15.88-6.79A22.71,22.71,0,0,0,715,175.3a23.28,23.28,0,0,0-6.68-16.6,21.28,21.28,0,0,0-31.57,0,23.46,23.46,0,0,0-6.61,16.66,22.9,22.9,0,0,0,6.39,16.37,21.16,21.16,0,0,0,16.05,6.73Z" fill="#231815"/>
    <path id="パス_391" data-name="パス 391" d="M765.15,152.25H753v42.84c0,1.57.22,2.53.67,2.86a6.838,6.838,0,0,0,3.36.51h5.39v8a54,54,0,0,1-8.19.9c-3.59,0-6.25-.88-8-2.64s-2.58-4.54-2.58-8.35V152.25H733.18v-8.07h10.55v-23H753v23h12.11Z" fill="#231815"/>
    <path id="パス_392" data-name="パス 392" d="M804.06,142.61a30.19,30.19,0,0,1,22.49,9.53,33,33,0,0,1,.11,45.7,31.74,31.74,0,0,1-45.25,0,32.91,32.91,0,0,1,.05-45.7A30.31,30.31,0,0,1,804.06,142.61Zm0,55.85a21.23,21.23,0,0,0,15.87-6.79,22.67,22.67,0,0,0,6.56-16.37,23.271,23.271,0,0,0-6.67-16.6,21.28,21.28,0,0,0-31.57,0,23.47,23.47,0,0,0-6.62,16.66A22.9,22.9,0,0,0,788,191.73,21.2,21.2,0,0,0,804.06,198.46Z" fill="#231815"/>
    <path id="パス_393" data-name="パス 393" d="M880.32,151.36l-5.94,6.16q-6.61-6.17-12.11-6.16a8.22,8.22,0,0,0-5.83,2.18,7.07,7.07,0,0,0-2.36,5.39,7.36,7.36,0,0,0,2.64,5.6,47.825,47.825,0,0,0,9.36,5.95,34.581,34.581,0,0,1,10.38,7.79,15.54,15.54,0,0,1,3.64,10.43,17.89,17.89,0,0,1-5.44,13.24,18.34,18.34,0,0,1-13.4,5.38q-11.1,0-18.51-9.42l5.84-6.51q6,7.06,12.33,7.07a10.39,10.39,0,0,0,7.29-2.8,8.69,8.69,0,0,0,3-6.57,8.2,8.2,0,0,0-2.75-6.28,43.93,43.93,0,0,0-9.42-5.88A31.4,31.4,0,0,1,849,169.47q-3.42-4.09-3.42-10.77a15.21,15.21,0,0,1,4.88-11.38q4.88-4.71,12.89-4.71T880.32,151.36Z" fill="#231815"/>
  </g>
</svg>
