<svg id="コンポーネント" xmlns="http://www.w3.org/2000/svg" width="30" height="30" viewBox="0 0 30 30">
  <path id="パス_28" data-name="パス 28" d="M55,41.7c4.005,0,4.479.015,6.061.087a8.331,8.331,0,0,1,2.786.516,4.967,4.967,0,0,1,2.847,2.847,8.323,8.323,0,0,1,.516,2.786C67.282,49.521,67.3,50,67.3,54s-.015,4.479-.087,6.061a8.331,8.331,0,0,1-.516,2.786A4.967,4.967,0,0,1,63.847,65.7a8.323,8.323,0,0,1-2.786.516c-1.581.071-2.056.087-6.061.087s-4.48-.015-6.061-.087a8.332,8.332,0,0,1-2.786-.516,4.967,4.967,0,0,1-2.847-2.847,8.323,8.323,0,0,1-.516-2.786C42.718,58.48,42.7,58.006,42.7,54s.015-4.479.087-6.061a8.331,8.331,0,0,1,.516-2.786,4.967,4.967,0,0,1,2.847-2.847,8.323,8.323,0,0,1,2.786-.516c1.582-.071,2.056-.087,6.061-.087M55,39c-4.071,0-4.584.017-6.184.09a11.014,11.014,0,0,0-3.643.7,7.678,7.678,0,0,0-4.387,4.387,11.014,11.014,0,0,0-.7,3.643C40.016,49.416,40,49.929,40,54s.017,4.584.09,6.184a11.014,11.014,0,0,0,.7,3.643,7.678,7.678,0,0,0,4.387,4.387,11.014,11.014,0,0,0,3.643.7c1.6.073,2.111.089,6.183.089s4.584-.017,6.184-.09a11.014,11.014,0,0,0,3.643-.7,7.678,7.678,0,0,0,4.387-4.387,11.014,11.014,0,0,0,.7-3.643c.073-1.6.089-2.111.089-6.183s-.017-4.584-.09-6.184a11.014,11.014,0,0,0-.7-3.643,7.678,7.678,0,0,0-4.387-4.387,11.014,11.014,0,0,0-3.643-.7C59.584,39.016,59.071,39,55,39Z" transform="translate(-40 -39)"/>
  <path id="パス_29" data-name="パス 29" d="M150.068,141.16a7.908,7.908,0,1,0,7.908,7.908A7.908,7.908,0,0,0,150.068,141.16Zm0,13.042a5.133,5.133,0,1,1,5.133-5.133A5.133,5.133,0,0,1,150.068,154.2Z" transform="translate(-135.068 -134.068)"/>
  <ellipse id="楕円形_8" data-name="楕円形 8" cx="1.749" cy="1.749" rx="1.749" ry="1.749" transform="translate(21.289 5.213)"/>
</svg>
