<svg id="Fe_Chan" xmlns="http://www.w3.org/2000/svg" viewBox="0 0 904 980"><defs><style>.cls-1,.cls-2{fill:#292436;}.cls-2{stroke:#000;stroke-miterlimit:10;stroke-width:2px;}</style></defs><title>Logo</title><path class="cls-1" d="M248.63,328.94q39.19-61.86,86.25-100.75t98.54-57.74a432.61,432.61,0,0,1,102.73-24.31q51.21-5.49,97.46-.22t81.28,14.84q52.49,14.36,75.81,42.12t18.21,46.39q-2,7.46-12.45,16A142,142,0,0,1,772.69,281a126.68,126.68,0,0,1-27.12,10.71q-13.74,3.63-21.25,1.57t-12-12.67q-4.49-10.63-11-23.83a111.79,111.79,0,0,0-17.83-25.69q-11.35-12.51-31.35-18-60-16.42-110.05-7.9t-90.63,31.71A285.32,285.32,0,0,0,380,294.67,487.54,487.54,0,0,0,327.13,365q-21.87,35.73-35.32,67.7t-18.57,50.74q-9.94,36.3-6.81,86.28a340.94,340.94,0,0,0,20.93,97.88,274.61,274.61,0,0,0,51.05,86,164.36,164.36,0,0,0,82,51.35q45,12.32,86.14,6.77t74.58-17.21q33.42-11.69,57.71-21.85t35.54-7.07q12.48,3.4,17.31,12.8T693.46,799q-1.37,5-12.74,14.66t-29.85,20.71Q632.39,845.42,610,856.06a218.28,218.28,0,0,1-46.71,16.08q-14.55,4.08-37.69,5.12a428.5,428.5,0,0,1-49.49-.79q-26.37-1.85-54.71-6.25A484,484,0,0,1,368,859q-35-9.57-77.14-37.23t-73.72-74.62q-31.58-46.93-44-112.83T184.44,482.1Q209.42,390.81,248.63,328.94Z"/><path class="cls-1" d="M469.52,412.52a10.84,10.84,0,0,1-3.92-1.21q-12.62-6.06-34.08-8.05a155.59,155.59,0,0,0-16.36-.51q-9.41.13-21.18,1.17l-4.43,45.45q20.82-3.48,31-2.53a309.93,309.93,0,0,1,33.4,5q9.79,2,8.9,11.65a10.82,10.82,0,0,1-3.78,7.56,10.26,10.26,0,0,1-7.87,2.4Q445.76,473,434.9,471t-16.34-2.47q-7.15-.66-31.51,3.23l-7.66,72.34a10.69,10.69,0,0,1-3.66,7.35,9.9,9.9,0,0,1-7.76,2.42,10.07,10.07,0,0,1-7.24-3.81,10.59,10.59,0,0,1-2.29-7.91Q360.36,521.41,365,480t6.57-62.18q.44-4.63,1.14-14t1.13-14a11.17,11.17,0,0,1,3.62-7.52,9.82,9.82,0,0,1,7.82-2.46,10.76,10.76,0,0,1,6,2.47q13.28-1.09,23.79-1.24a180.05,180.05,0,0,1,18.42.59,129.52,129.52,0,0,1,27.36,6.05q20.72,6.79,20,14.59a11.38,11.38,0,0,1-3.43,7.22A9.51,9.51,0,0,1,469.52,412.52Z"/><path class="cls-1" d="M595.41,556.93q-30.13,0-48.8-15.06-20.4-16.67-20.4-46.67,0-34.67,16.8-58.13,18.25-25.6,48.8-25.6,22.13,0,36.13,7.47,17.2,9.19,17.2,28.26,0,13.33-15.07,24.27-6.66,4.8-28.26,14.93l-50.94,24.14a48.69,48.69,0,0,0,18.6,16.66q11.13,5.59,25.94,5.6a81.54,81.54,0,0,0,21.6-3.47q15.72-4.4,20.26-11.53t9.74-7.13a11.72,11.72,0,0,1,8.33,3.53,11.09,11.09,0,0,1,3.67,8.2q0,14.8-23.87,25.47Q614.74,556.93,595.41,556.93Zm-3.6-121.46q-16.27,0-27.07,12.6T548.61,486l40.93-19.46q24.13-11.75,34.4-20.4Q612.46,435.48,591.81,435.47Z"/><path class="cls-2" d="M487.65,622.3,485,621l-1.33-5.27a14.94,14.94,0,0,1,2.63-5.72h7l2.64,2.19v1.76a15.41,15.41,0,0,1-4.39,7.92Z"/><path class="cls-1" d="M619.61,692.78q-28.08,24-65.42,26.72H534l-1.36,1.36h-19.9q-63-4.1-115-36.26l-1.37-6.54,6.82-9.27h7.9a228,228,0,0,0,99,33.26h13.36l6.54,1.36,1.37-1.36h20.17a85,85,0,0,0,48-17.45l1.36-5.18a14.41,14.41,0,0,1,13.36-4.09A30.93,30.93,0,0,1,619.61,692.78Z"/></svg>