<svg id="Twitter" xmlns="http://www.w3.org/2000/svg" width="36.552" height="29.705" viewBox="0 0 36.552 29.705">
  <path id="Twitter-2" data-name="Twitter" d="M51.94,108.719c13.8,0,21.34-11.428,21.34-21.34,0-.325-.006-.648-.021-.97A15.265,15.265,0,0,0,77,82.526a14.959,14.959,0,0,1-4.308,1.181,7.527,7.527,0,0,0,3.3-4.149,15.042,15.042,0,0,1-4.762,1.821,7.507,7.507,0,0,0-12.782,6.84,21.3,21.3,0,0,1-15.459-7.834,7.506,7.506,0,0,0,2.321,10.01,7.438,7.438,0,0,1-3.395-.938v.1A7.5,7.5,0,0,0,47.932,96.9a7.5,7.5,0,0,1-3.386.129,7.506,7.506,0,0,0,7.006,5.209,15.045,15.045,0,0,1-9.313,3.211,15.364,15.364,0,0,1-1.789-.1,21.229,21.229,0,0,0,11.5,3.368" transform="translate(-40.45 -79.014)"/>
</svg>
