<svg xmlns="http://www.w3.org/2000/svg" width="77.501" height="66.342" viewBox="0 0 77.501 66.342">
  <g id="Scrool" transform="translate(-921.247 -991)">
    <circle id="楕円形_27" data-name="楕円形 27" cx="7.5" cy="7.5" r="7.5" transform="translate(953 1022)" fill="#fff"/>
    <path id="パス_72" data-name="パス 72" d="M0,0V40" transform="translate(960.5 992.5)" fill="none" stroke="#fff" stroke-linecap="round" stroke-width="3"/>
    <path id="パス_395" data-name="パス 395" d="M8-11.761c-.893-1.216-1.9-2.223-3.572-2.223a3.167,3.167,0,0,0-3.306,3.192A3.572,3.572,0,0,0,2.28-8.17c3.1,2.508,4.5,3.363,4.5,4.864A2.415,2.415,0,0,1,4.256-.988c-1.045,0-2.033-.76-2.85-2.261l-1.159.7C1.254-.7,2.489.342,4.37.342A3.758,3.758,0,0,0,8.208-3.325c0-2.2-1.881-3.515-4.446-5.415a2.757,2.757,0,0,1-1.216-2.109,1.729,1.729,0,0,1,1.843-1.729c1.121,0,1.767.7,2.508,1.672Zm15.827.646a7.056,7.056,0,0,0-5.966-2.869A7.046,7.046,0,0,0,10.507-6.9,6.977,6.977,0,0,0,17.86.323a7.33,7.33,0,0,0,5.966-2.7l-1.083-.817A6.114,6.114,0,0,1,17.955-.931a5.779,5.779,0,0,1-6.023-5.852,5.8,5.8,0,0,1,5.947-5.871A5.89,5.89,0,0,1,22.743-10.3ZM26.638,0h1.368V-6.346h.779L33.687,0h1.691L30.457-6.346c2.261,0,3.629-.551,4.332-1.976a3.27,3.27,0,0,0,.4-1.691A3.376,3.376,0,0,0,32.946-13.3a10.142,10.142,0,0,0-3.173-.342H26.638ZM30.8-12.312c2.052,0,2.964.969,2.964,2.3a2.3,2.3,0,0,1-.817,1.767,4.291,4.291,0,0,1-2.679.589c-.722,0-1.5-.019-2.261-.019v-4.636Zm13.794-1.672a7.093,7.093,0,0,0-7.087,7.22,7.08,7.08,0,0,0,7.2,7.106,7.089,7.089,0,0,0,7.182-7.163A7.093,7.093,0,0,0,44.593-13.984Zm.076,1.33A5.759,5.759,0,0,1,50.464-6.84,5.712,5.712,0,0,1,44.669-.988a5.7,5.7,0,0,1-5.738-5.776A5.766,5.766,0,0,1,44.669-12.654ZM61.1-13.984a7.093,7.093,0,0,0-7.087,7.22,7.08,7.08,0,0,0,7.2,7.106A7.089,7.089,0,0,0,68.4-6.821,7.093,7.093,0,0,0,61.1-13.984Zm.076,1.33A5.759,5.759,0,0,1,66.975-6.84,5.712,5.712,0,0,1,61.18-.988a5.7,5.7,0,0,1-5.738-5.776A5.766,5.766,0,0,1,61.18-12.654ZM71.136,0h6.612V-1.33H72.5V-13.642H71.136Z" transform="translate(921 1057)" fill="#fff"/>
  </g>
</svg>
